<?xml version="1.0" encoding="UTF-8" standalone="no"?>
<svg
   fill="#566dfd"
   width="256px"
   height="256px"
   viewBox="0 0 24.00 24.00"
   role="img"
   stroke="#408080"
   stroke-width="0.00024000000000000003"
   version="1.1"
   id="svg1"
   sodipodi:docname="logo.svg"
   inkscape:version="1.4.2 (f4327f4, 2025-05-13)"
   xmlns:inkscape="http://www.inkscape.org/namespaces/inkscape"
   xmlns:sodipodi="http://sodipodi.sourceforge.net/DTD/sodipodi-0.dtd"
   xmlns:xlink="http://www.w3.org/1999/xlink"
   xmlns="http://www.w3.org/2000/svg"
   xmlns:svg="http://www.w3.org/2000/svg">
  <defs
     id="defs1">
    <linearGradient
       id="linearGradient10"
       inkscape:collect="always">
      <stop
         style="stop-color:#0e0e0e;stop-opacity:1;"
         offset="0"
         id="stop10" />
      <stop
         style="stop-color:#0e0e0e;stop-opacity:0;"
         offset="1"
         id="stop11" />
    </linearGradient>
    <linearGradient
       id="swatch3"
       inkscape:swatch="solid">
      <stop
         style="stop-color:#1fa1a1;stop-opacity:1;"
         offset="0"
         id="stop3" />
    </linearGradient>
    <linearGradient
       id="linearGradient1"
       inkscape:collect="always">
      <stop
         style="stop-color:#0e0e0e;stop-opacity:1;"
         offset="0"
         id="stop1" />
      <stop
         style="stop-color:#0e0e0e;stop-opacity:0;"
         offset="1"
         id="stop2" />
    </linearGradient>
    <linearGradient
       inkscape:collect="always"
       xlink:href="#linearGradient1"
       id="linearGradient2"
       x1="3.4657588"
       y1="18.574085"
       x2="21.029258"
       y2="18.574085"
       gradientUnits="userSpaceOnUse" />
    <linearGradient
       inkscape:collect="always"
       xlink:href="#linearGradient10"
       id="linearGradient11"
       x1="10.673301"
       y1="21.923073"
       x2="22.967757"
       y2="21.923073"
       gradientUnits="userSpaceOnUse" />
  </defs>
  <sodipodi:namedview
     id="namedview1"
     pagecolor="#ffffff"
     bordercolor="#000000"
     borderopacity="0.25"
     inkscape:showpageshadow="2"
     inkscape:pageopacity="0.0"
     inkscape:pagecheckerboard="0"
     inkscape:deskcolor="#d1d1d1"
     inkscape:zoom="1.3672573"
     inkscape:cx="101.29769"
     inkscape:cy="183.2135"
     inkscape:window-width="1366"
     inkscape:window-height="697"
     inkscape:window-x="-8"
     inkscape:window-y="-8"
     inkscape:window-maximized="1"
     inkscape:current-layer="SVGRepo_iconCarrier" />
  <g
     id="SVGRepo_bgCarrier"
     stroke-width="0" />
  <g
     id="SVGRepo_tracerCarrier"
     stroke-linecap="round"
     stroke-linejoin="round"
     stroke="#CCCCCC"
     stroke-width="0.24000000000000005" />
  <g
     id="SVGRepo_iconCarrier"
     transform="matrix(0.99999899,0,0,1.1856896,1.2171283e-5,-0.05569784)">
    <path
       d="M 10.346,19.871 C 9.653,19.847 8.436,19.617 7.686,19.368 6.441,18.954 5.776,18.556 4.953,17.73 3.507,16.28 2.811,15.069 2.17,12.882 1.812,11.664 1.616,11.092 1.332,10.432 1.062,9.808 0.559,8.957 0.167,8.46 L 0,8.247 0.115,8.2 C 0.312,8.116 1.061,7.97 1.922,7.846 c 1.11,-0.16 3.107,-0.162 4,-0.004 0.204,0.036 0.442,0.075 0.53,0.087 0.722,0.1 2.041,0.548 2.808,0.953 0.7362899,0.3765643 1.406926,0.8695795 1.986,1.46 1.584,1.596 2.75,4.224 2.98,6.718 0.055,0.586 0.065,1.35 0.02,1.42 -0.02,0.033 -0.142,-0.092 -0.41,-0.417 -1.002,-1.22 -2.22,-2.298 -3.456,-3.056 -0.341,-0.21 -1.465,-0.77 -1.699,-0.848 -0.209,-0.07 -0.13,0.04 0.317,0.445 0.6887778,0.639879 1.351322,1.307427 1.986,2.001 0.505,0.565 1.14,1.39 1.409,1.834 0.287,0.472 0.603,1.115 0.634,1.289 l 0.023,0.13 -0.312,0.013 c -0.797255,0.01521 -1.594721,0.01587 -2.392,0.002 z m 8.398,-0.072 -4.256,-0.009 v -0.308 c 0,-0.17 0.024,-0.483 0.052,-0.696 0.02153,-0.14952 0.0392,-0.29957 0.053,-0.45 0,-0.057 0.146,-0.06 2.542,-0.06 2.804,0 2.757,0.002 3.072,-0.222 0.22,-0.158 0.334,-0.304 0.452,-0.581 l 0.1,-0.238 0.002,-4.866 V 7.503 L 20.629,7.284 C 20.447,6.984 20.274,6.809 20.051,6.703 L 19.862,6.613 13.676,6.589 C 9.372,6.573 7.422,6.577 7.266,6.603 7.0849515,6.6386781 6.911838,6.7067716 6.755,6.804 L 6.468,6.968 6.239,6.931 C 6.113,6.911 5.883,6.87 5.729,6.841 5.5184469,6.8030853 5.3066559,6.7724006 5.094,6.749 4.551,6.692 4.583,6.712 4.583,6.427 4.583,6.133 4.679,5.824 4.851,5.565 4.988,5.358 5.115,5.251 5.383,5.115 L 5.567,5.022 h 8.701 c 9.813,0 8.878,-0.03 9.226,0.29 0.222,0.202 0.409,0.554 0.473,0.891 0.03,0.155 0.038,1.854 0.03,6.344 l -0.01,6.133 -0.083,0.228 c -0.102,0.282 -0.286,0.564 -0.452,0.69 -0.29,0.222 -0.03,0.211 -4.709,0.201 z m 3.86,-3.51 c 0.652,-0.288 0.855,-1.03 0.434,-1.58 -0.315,-0.413 -0.952,-0.437 -1.28,-0.048 -0.482,0.571 -0.255,1.381 0.467,1.664 0.15,0.059 0.17,0.057 0.38,-0.036 z m 0,-2.92 c 0.184,-0.055 0.447,-0.295 0.556,-0.509 0.126862,-0.280239 0.123936,-0.602114 -0.008,-0.88 -0.157,-0.3 -0.426,-0.495 -0.728,-0.531 -0.137,-0.016 -0.2,-0.003 -0.342,0.071 -0.304,0.16 -0.436,0.315 -0.543,0.637 -0.074,0.22 -0.074,0.237 -0.02,0.45 0.147,0.583 0.606,0.905 1.084,0.762 z m 0.116,-2.958 c 0.179,-0.066 0.213,-0.097 0.361,-0.326 0.162,-0.249 0.164,-0.255 0.165,-0.551 0,-0.258 -0.012,-0.325 -0.092,-0.476 C 23.063042,8.881833 22.925345,8.7341034 22.756,8.631 22.62,8.545 22.17,8.541 22.014,8.625 c -0.287,0.155 -0.51,0.544 -0.51,0.891 -0.0042,0.1473172 0.03026,0.2931653 0.1,0.423 0.234,0.487 0.63,0.655 1.116,0.473 z M 12.76,4.74 C 12.77116,4.666512 12.79483,4.5954828 12.83,4.53 12.925,4.346 12.92,4.313 12.787,4.15 12.517671,3.8040482 12.250997,3.456038 11.987,3.106 L 11.3,2.203 h -0.207 c -0.187,0 -0.218,-0.01 -0.309,-0.108 -0.187769,-0.2086983 -0.178974,-0.5279558 0.02,-0.726 0.097,-0.098 0.142,-0.117 0.274,-0.117 0.295,0 0.472,0.228 0.436,0.565 l -0.02,0.2 0.641,0.613 c 0.353,0.337 0.787,0.752 0.963,0.922 l 0.322,0.309 0.136,-0.058 c 0.156,-0.065 0.58,-0.076 0.727,-0.018 0.093,0.036 0.11,0.017 1.178,-1.319 0.596,-0.746 1.095,-1.355 1.108,-1.355 0.013,0 0,-0.072 -0.029,-0.159 -0.07,-0.214 -0.033,-0.388 0.114,-0.535 0.1,-0.099 0.143,-0.117 0.28,-0.117 0.29,0 0.444,0.17 0.444,0.492 0,0.154 -0.017,0.197 -0.12,0.31 -0.106,0.115 -0.145,0.133 -0.325,0.149 l -0.204,0.018 -0.89,1.48 c -0.49,0.815 -0.892,1.505 -0.893,1.534 0,0.029 0.031,0.136 0.07,0.238 0.12,0.316 0.217,0.29 -1.093,0.29 -1.147,0 -1.163,0 -1.163,-0.071 z"
       id="path1"
       sodipodi:nodetypes="ccccccccccccccccccccccccccccsccscccccccccccccccscccsccccccccccccccccccccccccccccccccccccccsccsccccccccsccssccccccsc"
       inkscape:transform-center-x="0.48481223"
       inkscape:transform-center-y="-1.2121212" />
    <path
       style="opacity:0.61;fill:#dc8add;fill-opacity:1;stroke:#6086f3;stroke-width:0.00219417;stroke-dasharray:none;stroke-opacity:0.86920983;paint-order:markers stroke fill"
       d="M 102.02908,249.32612 C 84.833989,246.25772 70.11202,239.77992 60.967668,231.25871 49.95145,220.9932 39.403065,206.07608 33.233057,192.03747 29.43227,183.38955 27.535267,177.4123 22.403376,157.91433 20.187147,149.49405 17.341144,139.48176 16.078923,135.6648 13.442783,127.69308 7.2916313,114.45015 3.3973712,108.36245 c -1.4662889,-2.29218 -2.66597996,-4.31302 -2.66597996,-4.49076 0,-0.60283 7.64534526,-2.60924 16.09060676,-4.222742 7.15038,-1.366113 10.987048,-1.609625 25.598694,-1.624741 15.38855,-0.01592 17.991567,0.161467 24.867302,1.694624 17.038,3.799149 32.653656,11.677449 44.460026,22.430649 17.63676,16.06349 32.40907,46.83028 37.74723,78.61741 1.98814,11.83882 3.29248,31.48785 2.08558,31.41814 -0.30169,-0.0174 -2.19417,-2.38764 -4.2055,-5.26715 -9.01681,-12.90889 -22.40592,-27.26508 -32.99697,-35.38036 -2.86227,-2.19317 -8.78082,-6.11523 -13.15233,-8.71568 -12.417756,-7.38683 -12.742757,-6.61783 -2.250876,5.32609 20.526116,23.36686 33.368696,42.6084 38.613806,57.85357 0.75646,2.19868 1.37538,4.11064 1.37538,4.2488 0,0.78702 -31.8056,-0.009 -36.93526,-0.92418 z"
       id="path10"
       transform="matrix(0.09375009,0,0,0.07906791,-1.2171295e-5,0.04697506)" />
  </g>
</svg>
